<svg width="18" height="18" viewBox="0 0 18 18" fill="none" xmlns="http://www.w3.org/2000/svg">
<path fill-rule="evenodd" clip-rule="evenodd" d="M8.80773 0C3.95629 0 6.40911e-06 3.95005 0 8.80148C-1.1946e-05 13.6529 3.95628 17.6077 8.80773 17.6077C13.6592 17.6077 17.6077 13.6529 17.6077 8.80148C17.6076 3.95005 13.6592 0 8.80773 0ZM8.79523 4.78987C8.90242 4.7886 9.00877 4.80889 9.10796 4.84951C9.20716 4.89014 9.29718 4.95028 9.37269 5.02637C9.4482 5.10246 9.50764 5.19294 9.54751 5.29245C9.58737 5.39196 9.60683 5.49846 9.60474 5.60563V8.00291H12.002C12.2144 8.00291 12.4182 8.08729 12.5684 8.23749C12.7186 8.3877 12.8029 8.59141 12.8029 8.80383C12.8029 9.01624 12.7186 9.21996 12.5684 9.37016C12.4182 9.52036 12.2144 9.60474 12.002 9.60474H9.60474V12.002C9.60474 12.2144 9.52036 12.4182 9.37016 12.5684C9.21996 12.7186 9.01624 12.8029 8.80383 12.8029C8.59141 12.8029 8.3877 12.7186 8.23749 12.5684C8.08729 12.4182 8.00291 12.2144 8.00291 12.002V9.60474H5.60563C5.39326 9.61565 5.18525 9.54176 5.02735 9.39933C4.86945 9.2569 4.77457 9.05759 4.76359 8.84523C4.75261 8.63286 4.82642 8.42483 4.96879 8.26687C5.11117 8.10891 5.31044 8.01397 5.52281 8.00291C5.5504 8.00148 5.57804 8.00148 5.60563 8.00291H8.00291V5.60563C8.00085 5.49991 8.01977 5.39482 8.05857 5.29645C8.09736 5.19808 8.15527 5.10837 8.22895 5.03252C8.30262 4.95666 8.3906 4.89616 8.4878 4.85451C8.585 4.81286 8.68949 4.79089 8.79523 4.78987Z" fill="white"/>
</svg>
