<svg width="11" height="11" viewBox="0 0 11 11" fill="none" xmlns="http://www.w3.org/2000/svg">
<path fill-rule="evenodd" clip-rule="evenodd" d="M2.29169 1.375C2.03856 1.375 1.83335 1.5802 1.83335 1.83333V7.33333C1.83335 7.58647 1.62815 7.79167 1.37502 7.79167C1.12189 7.79167 0.916687 7.58647 0.916687 7.33333V1.83333C0.916687 1.07394 1.5323 0.458332 2.29169 0.458332H6.87502C7.12816 0.458332 7.33335 0.663537 7.33335 0.916665C7.33335 1.16979 7.12816 1.375 6.87502 1.375H2.29169ZM2.75002 3.66667C2.75002 2.90728 3.36563 2.29167 4.12502 2.29167H8.25002C9.00943 2.29167 9.62502 2.90728 9.62502 3.66667V9.16667C9.62502 9.92608 9.00943 10.5417 8.25002 10.5417H4.12502C3.36563 10.5417 2.75002 9.92608 2.75002 9.16667V3.66667ZM4.12502 3.20833C3.87189 3.20833 3.66669 3.41354 3.66669 3.66667V9.16667C3.66669 9.4198 3.87189 9.625 4.12502 9.625H8.25002C8.50316 9.625 8.70835 9.4198 8.70835 9.16667V3.66667C8.70835 3.41354 8.50316 3.20833 8.25002 3.20833H4.12502Z" fill="white"/>
</svg>
